<?xml version="1.0" encoding="UTF-8" standalone="no"?>
<svg
   width="40"
   height="60"
   viewBox="0 0 40 60"
   version="1.1"
   id="svg1"
   xmlns="http://www.w3.org/2000/svg"
   xmlns:svg="http://www.w3.org/2000/svg">
  <defs
     id="defs1" />
  <g
     fill="none"
     stroke="#000000"
     stroke-linecap="round"
     stroke-linejoin="round"
     stroke-width="1"
     id="g4"
     transform="matrix(1.7358995,0,0,1.7358995,-0.8169946,9.1830045)"
     style="stroke:#ffffff;stroke-width:1.74172;stroke-dasharray:none;stroke-opacity:1">
    <path
       d="m 10.56,9.95 c -1.141,-3.877 -0.02,-7.5 2.71,-7.456 2.253,0.03 4.4,1.06 4.862,2.8 0.56,2.189 -2.14,2.55 -4.33,3.05"
       id="path1-8"
       style="stroke:#ffffff;stroke-width:1.74172;stroke-dasharray:none;stroke-opacity:1" />
    <path
       d="m 13.439,14.04 c 1.141,3.87 0.01,7.5 -2.72,7.45 -2.253,-0.04 -4.41,-1.06 -4.862,-2.8 -0.57,-2.19 2.136,-2.55 4.32,-3.06"
       id="path2-3"
       style="stroke:#ffffff;stroke-width:1.74172;stroke-dasharray:none;stroke-opacity:1" />
    <path
       d="m 14.04,10.56 c 3.87,-1.141 7.5,-0.02 7.45,2.71 -0.04,2.253 -1.06,4.4 -2.8,4.862 -2.19,0.56 -2.55,-2.14 -3.06,-4.33"
       id="path3"
       style="stroke:#ffffff;stroke-width:1.74172;stroke-dasharray:none;stroke-opacity:1" />
    <path
       d="m 9.95,13.439 c -3.877,1.141 -7.5,0.01 -7.456,-2.72 0.03,-2.253 1.06,-4.41 2.8,-4.862 2.189,-0.57 2.55,2.136 3.05,4.32"
       id="path4"
       style="stroke:#ffffff;stroke-width:1.74172;stroke-dasharray:none;stroke-opacity:1" />
    <circle
       cx="12"
       cy="12"
       r="2.5"
       id="circle4"
       style="stroke:#ffffff;stroke-width:1.74172;stroke-dasharray:none;stroke-opacity:1" />
  </g>
</svg>
