<?xml version="1.0" encoding="UTF-8" standalone="no"?>
<svg
   width="40"
   height="60"
   viewBox="0 0 40 60"
   version="1.1"
   id="svg1"
   xmlns="http://www.w3.org/2000/svg"
   xmlns:svg="http://www.w3.org/2000/svg">
  <defs
     id="defs1" />
  <g
     fill="none"
     stroke="#000000"
     stroke-linecap="round"
     stroke-linejoin="round"
     stroke-width="1"
     id="g8"
     transform="matrix(1.7828002,0,0,1.7828002,-1.3936024,8.1633609)"
     style="stroke:#ffffff;stroke-width:1.69596;stroke-dasharray:none;stroke-opacity:1">
    <path
       d="m 16.412,19.447 v 1.17 0 c 0,0.48 0.39,0.88 0.88,0.88 h 1.32 v 0 c 0.48,0 0.88,-0.4 0.88,-0.89 v -4.19 -0.001 c 0,-0.74 -0.16,-1.47 -0.45,-2.14 l -1.77,-4.02 v -10e-4 c -0.26,-0.69 -0.92,-1.15 -1.66,-1.15 H 8.35 v 0 c -0.74,-0.01 -1.4,0.45 -1.66,1.14 l -1.77,4 v 0 c -0.3,0.67 -0.46,1.4 -0.45,2.13 v 4.17 0 c -10e-4,0.48 0.39,0.88 0.88,0.88 h 1.32 v 0 c 0.48,0 0.88,-0.4 0.88,-0.89 v -1.17"
       id="path1-8"
       style="stroke:#ffffff;stroke-width:1.69596;stroke-dasharray:none;stroke-opacity:1" />
    <line
       x1="3.6700001"
       x2="4.9400001"
       y1="13.51"
       y2="14.23"
       id="line1"
       style="stroke:#ffffff;stroke-width:1.69596;stroke-dasharray:none;stroke-opacity:1" />
    <line
       x1="20.33"
       x2="19.059999"
       y1="13.51"
       y2="14.23"
       id="line2"
       style="stroke:#ffffff;stroke-width:1.69596;stroke-dasharray:none;stroke-opacity:1" />
    <g
       fill="none"
       fill-rule="evenodd"
       stroke="#000000"
       stroke-linecap="round"
       stroke-linejoin="round"
       stroke-width="1"
       id="g7"
       style="stroke:#ffffff;stroke-width:1.69596;stroke-dasharray:none;stroke-opacity:1">
      <path
         d="m 7.14,14.55 v -0.001 c 3.2,-0.65 6.5,-0.65 9.7,0"
         id="path2-3"
         style="stroke:#ffffff;stroke-width:1.69596;stroke-dasharray:none;stroke-opacity:1" />
      <path
         d="m 6.26,19.164 v 0 c 3.78,0.75 7.68,0.75 11.47,0"
         id="path3"
         style="stroke:#ffffff;stroke-width:1.69596;stroke-dasharray:none;stroke-opacity:1" />
      <path
         d="M 7.072,16.868 7.071,16.867 c -0.01,-0.15 0.09,-0.27 0.24,-0.28 0.14,-0.01 0.26,0.09 0.27,0.24 0,0.01 0,0.02 0,0.03"
         id="path4"
         style="stroke:#ffffff;stroke-width:1.69596;stroke-dasharray:none;stroke-opacity:1" />
      <path
         d="m 7.587,16.868 v -10e-4 c -0.01,0.14 -0.14,0.25 -0.28,0.24 -0.13,-0.01 -0.24,-0.12 -0.25,-0.25"
         id="path5"
         style="stroke:#ffffff;stroke-width:1.69596;stroke-dasharray:none;stroke-opacity:1" />
      <path
         d="m 16.5,16.868 v -10e-4 c -0.01,-0.15 0.09,-0.27 0.24,-0.28 0.14,-0.01 0.26,0.09 0.27,0.24 0,0.01 0,0.02 0,0.03"
         id="path6"
         style="stroke:#ffffff;stroke-width:1.69596;stroke-dasharray:none;stroke-opacity:1" />
      <path
         d="m 17.022,16.868 v -10e-4 c -0.01,0.14 -0.14,0.25 -0.28,0.24 -0.13,-0.01 -0.24,-0.12 -0.25,-0.25"
         id="path7"
         style="stroke:#ffffff;stroke-width:1.69596;stroke-dasharray:none;stroke-opacity:1" />
    </g>
    <polyline
       points="3 8 12 3 21 8"
       id="polyline7"
       style="stroke:#ffffff;stroke-width:1.69596;stroke-dasharray:none;stroke-opacity:1" />
  </g>
</svg>
