<?xml version="1.0" encoding="UTF-8" standalone="no"?>
<svg
   width="40"
   height="60"
   viewBox="0 0 40 60"
   fill="none"
   stroke="currentColor"
   stroke-width="2"
   stroke-linecap="round"
   stroke-linejoin="round"
   data-lucide="blinds"
   class="lucide lucide-blinds device-icon"
   version="1.1"
   id="svg6"
   xmlns="http://www.w3.org/2000/svg"
   xmlns:svg="http://www.w3.org/2000/svg">
  <defs
     id="defs6" />
  <g
     id="g6">
    <g
       id="g7"
       transform="matrix(1.0075358,0,0,1.0075358,34.105501,8.8417483)"
       style="stroke:#ffffff;stroke-width:3.00101;stroke-dasharray:none;stroke-opacity:1">
      <path
         d="m -15.608195,5.9716349 a 1.6360076,1.6360076 0 0 1 3.21639,0 l 1.719444,9.0929291 a 3.2720151,3.2720151 0 0 0 2.6077964,2.607796 l 9.09293,1.719444 a 1.6360076,1.6360076 0 0 1 0,3.216391 l -9.09293,1.719444 a 3.2720151,3.2720151 0 0 0 -2.6077964,2.607796 l -1.719444,9.09293 a 1.6360076,1.6360076 0 0 1 -3.21639,0 l -1.719444,-9.09293 a 3.2720151,3.2720151 0 0 0 -2.607796,-2.607796 l -9.09293,-1.719444 a 1.6360076,1.6360076 0 0 1 0,-3.216391 l 9.09293,-1.719444 a 3.2720151,3.2720151 0 0 0 2.607796,-2.607796 z"
         id="path1-5"
         style="stroke:#ffffff;stroke-width:3.00101;stroke-dasharray:none;stroke-opacity:1" />
      <path
         d="M -0.91193954,4.6399248 V 11.183955"
         id="path2-1"
         style="stroke:#ffffff;stroke-width:3.00101;stroke-dasharray:none;stroke-opacity:1" />
      <path
         d="M 2.3600756,7.9119399 H -4.1839547"
         id="path3-1"
         style="stroke:#ffffff;stroke-width:3.00101;stroke-dasharray:none;stroke-opacity:1" />
      <circle
         cx="-27.08806"
         cy="34.088058"
         r="3.2720151"
         id="circle3"
         style="stroke:#ffffff;stroke-width:3.00101;stroke-dasharray:none;stroke-opacity:1" />
    </g>
  </g>
</svg>
