<?xml version="1.0" encoding="UTF-8" standalone="no"?>
<svg
   width="40"
   height="60"
   viewBox="0 0 40 60"
   fill="none"
   stroke="currentColor"
   stroke-width="2"
   stroke-linecap="round"
   stroke-linejoin="round"
   data-lucide="blinds"
   class="lucide lucide-blinds device-icon"
   version="1.1"
   id="svg6"
   xmlns="http://www.w3.org/2000/svg"
   xmlns:svg="http://www.w3.org/2000/svg">
  <defs
     id="defs6" />
  <g
     id="g6">
    <g
       id="g7"
       transform="translate(1.3835188,0.8011101)">
      <path
         d="M 22.414284,32.557763 A 0.58747894,0.58747894 0 0 1 22.141103,32.062079 V 16.235396 a 3.5248736,3.5248736 0 0 0 -3.524865,-3.524875 v 0 a 3.5248736,3.5248736 0 0 0 -3.524886,3.524875 v 15.826683 a 0.58747894,0.58747894 0 0 1 -0.272436,0.495684 7.160634,7.160634 0 0 0 -3.25243,6.021658 7.1833988,7.1833988 0 0 0 3.923628,6.383696 7.0497472,7.0497472 0 0 0 10.175864,-6.40353 7.1591653,7.1591653 0 0 0 -3.251694,-6.001824 z"
         fill="none"
         stroke="currentColor"
         stroke-linecap="round"
         stroke-miterlimit="10"
         stroke-width="2.39446"
         id="path1"
         style="stroke:#ffffff;stroke-width:3.02326;stroke-dasharray:none;stroke-opacity:1" />
      <path
         d="M 18.616481,34.59439 V 26.663424"
         fill="none"
         stroke="currentColor"
         stroke-linecap="round"
         stroke-miterlimit="10"
         stroke-width="2.39446"
         id="path2"
         style="stroke:#ffffff;stroke-width:1.51181;stroke-dasharray:none;stroke-opacity:1" />
      <circle
         cx="18.616238"
         cy="38.559601"
         r="3.5248737"
         fill="currentColor"
         id="circle2"
         style="fill:#ffffff;fill-opacity:1;stroke:#ffffff;stroke-width:0.755906;stroke-dasharray:none;stroke-opacity:1" />
    </g>
  </g>
</svg>
